<svg xmlns="http://www.w3.org/2000/svg" viewBox="0 0 120 120" role="img" aria-label="Socrate AI Monochrome Icon">
  <defs>
    <!-- Simple glow for monochrome -->
    <filter id="monoGlow" x="-50%" y="-50%" width="200%" height="200%">
      <feGaussianBlur stdDeviation="3" result="coloredBlur"/>
      <feMerge>
        <feMergeNode in="coloredBlur"/>
        <feMergeNode in="SourceGraphic"/>
      </feMerge>
    </filter>
  </defs>

  <!-- Background circle -->
  <circle cx="60" cy="60" r="50" fill="none" stroke="currentColor" stroke-width="2.5" opacity="0.6"/>

  <!-- Owl body -->
  <ellipse cx="60" cy="65" rx="22" ry="28" fill="currentColor" opacity="0.9"/>

  <!-- Owl head -->
  <circle cx="60" cy="45" r="18" fill="currentColor" opacity="0.9"/>

  <!-- Eyes -->
  <circle cx="54" cy="43" r="5" fill="currentColor"/>
  <circle cx="66" cy="43" r="5" fill="currentColor"/>

  <!-- Eye pupils (white/inverted) -->
  <circle cx="54" cy="43" r="2" fill="white"/>
  <circle cx="66" cy="43" r="2" fill="white"/>

  <!-- Beak -->
  <path d="M 60 48 L 58 52 L 62 52 Z" fill="currentColor"/>

  <!-- Ear tufts -->
  <path d="M 48 35 L 50 30 L 52 35" stroke="currentColor" stroke-width="1.5" fill="none"/>
  <path d="M 68 35 L 70 30 L 72 35" stroke="currentColor" stroke-width="1.5" fill="none"/>

  <!-- Tech wing (right side) -->
  <g opacity="0.8">
    <path d="M 82 60 Q 95 50, 105 55 Q 110 60, 105 70 Q 95 75, 82 68 Z"
          fill="none" stroke="currentColor" stroke-width="2"/>

    <!-- Circuit lines -->
    <line x1="85" y1="58" x2="95" y2="58" stroke="currentColor" stroke-width="1.5" opacity="0.7"/>
    <line x1="95" y1="58" x2="95" y2="65" stroke="currentColor" stroke-width="1.5" opacity="0.7"/>
    <line x1="88" y1="65" x2="98" y2="65" stroke="currentColor" stroke-width="1.5" opacity="0.7"/>

    <!-- Circuit nodes -->
    <circle cx="85" cy="58" r="2" fill="currentColor"/>
    <circle cx="95" cy="58" r="2" fill="currentColor"/>
    <circle cx="95" cy="65" r="2" fill="currentColor"/>
    <circle cx="88" cy="65" r="2" fill="currentColor"/>
  </g>

  <!-- Left wing -->
  <path d="M 38 60 Q 25 50, 15 55 Q 10 60, 15 70 Q 25 75, 38 68 Z"
        fill="currentColor" opacity="0.6"/>

  <!-- Feet -->
  <path d="M 54 88 L 52 92 M 54 88 L 56 92" stroke="currentColor" stroke-width="2" stroke-linecap="round"/>
  <path d="M 66 88 L 64 92 M 66 88 L 68 92" stroke="currentColor" stroke-width="2" stroke-linecap="round"/>
</svg>
